<svg width="1440" height="138" viewBox="0 0 1440 138" fill="none" xmlns="http://www.w3.org/2000/svg">
<g clip-path="url(#clip0_1_300)">
<path d="M-423.855 -86.5156L-372.067 -68.5931C-320.278 -51.3406 -216.701 -14.4906 -113.124 29.5619C-9.5462 74.2844 94.0311 127.884 197.608 127.884C301.186 127.884 404.763 74.2844 508.34 56.3619C611.918 39.1094 715.495 55.8594 819.072 74.2844C922.65 92.7094 1026.23 109.459 1129.8 83.1619C1233.38 55.8594 1336.96 -14.4906 1440.54 11.8069C1544.11 39.1094 1647.69 163.059 1751.27 190.362C1854.85 216.659 1958.42 146.309 2010.21 109.961L2062 74.2844V449.484H2010.21C1958.42 449.484 1854.85 449.484 1751.27 449.484C1647.69 449.484 1544.11 449.484 1440.54 449.484C1336.96 449.484 1233.38 449.484 1129.8 449.484C1026.23 449.484 922.65 449.484 819.072 449.484C715.495 449.484 611.918 449.484 508.34 449.484C404.763 449.484 301.186 449.484 197.608 449.484C94.0311 449.484 -9.5462 449.484 -113.124 449.484C-216.701 449.484 -320.278 449.484 -372.067 449.484H-423.855V-86.5156Z" fill="#FBF1E6"/>
<path d="M1436 136.973H0V398.704H1436V136.973Z" fill="#FBF1E6"/>
</g>
<defs>
<clipPath id="clip0_1_300">
<rect width="1440" height="137" fill="white" transform="translate(0 0.484375)"/>
</clipPath>
</defs>
</svg>
