<svg width="1440" height="140" viewBox="0 0 1440 140" fill="none" xmlns="http://www.w3.org/2000/svg">
<path d="M-630 224L-578.211 206.078C-526.423 188.825 -422.845 151.975 -319.268 107.923C-215.691 63.2 -112.113 9.60001 -8.53601 9.60001C95.041 9.60001 198.618 63.2 302.196 81.1225C405.773 98.375 509.35 81.625 612.928 63.2C716.505 44.775 820.082 28.025 923.66 54.3225C1027.24 81.625 1130.81 151.975 1234.39 125.677C1337.97 98.375 1441.55 -25.575 1545.12 -52.8775C1648.7 -79.175 1752.28 -8.82501 1804.07 27.5225L1855.86 63.2V-312H1804.07C1752.28 -312 1648.7 -312 1545.12 -312C1441.55 -312 1337.97 -312 1234.39 -312C1130.81 -312 1027.24 -312 923.66 -312C820.082 -312 716.505 -312 612.928 -312C509.35 -312 405.773 -312 302.196 -312C198.618 -312 95.041 -312 -8.53601 -312C-112.113 -312 -215.691 -312 -319.268 -312C-422.845 -312 -526.423 -312 -578.211 -312H-630V224Z" fill="#FBF1E6"/>
</svg>
